<svg xmlns="http://www.w3.org/2000/svg" viewBox="0 0 419.68 400.02">
  <defs>
    <style>
      .cls-1 {
        fill: #148b82;
      }

      .cls-2 {
        fill: #eab574;
      }

      .cls-3 {
        fill: #f0592c;
      }

      .cls-4 {
        fill: #64311e;
      }

      .cls-5 {
        fill: #ed2524;
      }

      .cls-6, .cls-7 {
        fill: #231f20;
      }

      .cls-6 {
        stroke: #231f20;
        stroke-miterlimit: 10;
        stroke-width: 1.01px;
        fill-rule: evenodd;
      }
    </style>
  </defs>
  <g id="Layer_7" data-name="Layer 7">
    <circle class="cls-1" cx="198.74" cy="199.75" r="190.97"/>
    <circle class="cls-2" cx="200.06" cy="201.41" r="170.21"/>
    <circle class="cls-3" cx="198.74" cy="200.09" r="129.11"/>
    <circle class="cls-4" cx="200.06" cy="201.41" r="98.99"/>
    <path class="cls-5" d="M199,280.81a328.78,328.78,0,0,1-45.9-53c-18.4-26.6-19.51-36.83-18.69-44.34,1.34-12.18,9.32-31.47,27.39-34.83C175.75,146,191,153.82,199,168.23c7.16-12.64,19.46-20.27,31.89-19.62,15.62.82,24.53,14.35,25.67,16.14,11.47,18,4.2,48.23-19.13,74.33Z"/>
  </g>
  <g id="Layer_2" data-name="Layer 2">
    <path d="M368.5,307.78C332.21,364.23,267,400.93,200,400,101.93,398.64,0,316.55,0,200,0,89.54,89.54,0,200,0A200,200,0,0,1,380.59,114l-8.91,4.54A190,190,0,0,0,200,10C95.07,10,10,95.07,10,200S95.07,390,200,390c63.33,0,125.14-33.66,159.71-87Z"/>
    <path d="M363.49,304.28c-35.09,54.58-98.17,90.06-162.91,89.16C105.77,392.12,7.23,312.76,7.23,200.08,7.23,93.3,93.79,6.73,200.58,6.73A193.37,193.37,0,0,1,375.17,116.89l-8.62,4.39A183.71,183.71,0,0,0,16.9,200.08c0,101.45,82.23,183.69,183.68,183.69,61.23,0,121-32.55,154.4-84.15Z"/>
  </g>
  <g id="Layer_8" data-name="Layer 8">
    <path class="cls-6" d="M72.29,31.85A18.17,18.17,0,1,1,59.52,54.14,18.17,18.17,0,0,1,72.29,31.85ZM46,124.05c.81-9.83,3-27.89,8.1-38.79-2.41,10.59,0,24.6-1.28,39a9.54,9.54,0,0,0-6.82-.22Zm18.55-57a21.51,21.51,0,0,0,6.18,3C66,76.6,58.83,83.67,55.55,96.38c.33-12.08-.39-15.9,9-29.33ZM51.92,179.84a161.66,161.66,0,0,1,15.91,26.83,43,43,0,0,0-7.24-2.34c15,7.34,17.83,27.81,21.6,41.76a50.21,50.21,0,0,0-10.75-6.68c16.84,12.84,17.33,34.3,19,52.79-4.9-5.88-10.19-10.22-13.89-12.3,13.6,13.19,15.61,31.51,14.74,48.54-17.8-4.08-39.54-49.32-36.42-67.44a42.75,42.75,0,0,0-3.36,12.07c-8.2-17.66-15.2-38.68-5.59-57.23a46.53,46.53,0,0,0-7.35,11.64c-.85-9.25-3.3-27.19,6-33a30.47,30.47,0,0,0-4.19,1.12,85.36,85.36,0,0,1,7-18.06c1.51-.31,2.83-.64,4.24-.95l.24,3.29ZM80.64,305.45c-12.39-24.83-28-90.83-30.49-121.1-4.48,26.84,13.94,99.72,30.49,121.1ZM45.25,127.62a6.64,6.64,0,1,1-1.53,9.28,6.66,6.66,0,0,1,1.53-9.28Zm-1.8,30.61a43.74,43.74,0,0,1,11.51-1c-.06-.84,0-2.23-.08-3.06-2.78-.3-7.64-.77-11.74.44a32.74,32.74,0,0,0,.31,3.63Zm.88,12.34a38.45,38.45,0,0,1,11.55-.94c-.07-.82,0-2.21-.07-3-3.63-.2-8.33-.4-12,.78.22,1.18.33,2,.55,3.2Zm2.11,4.56c2.77-.55,4.87-1.11,7.67-1.66l-.06-1.94a43.5,43.5,0,0,0-8.43.68c.29,1.72.56,2.8.82,2.92ZM54,164.71v-5.59a43.18,43.18,0,0,0-9.54.73c.11,1.71.23,3.39.37,5a63.88,63.88,0,0,1,9.16-.11Zm0-12.35,0-4.77a42.49,42.49,0,0,0-10.14.84c0,1.28.09,2.6.14,4a60.55,60.55,0,0,1,10,0Zm-.16-6.61c0-1.41-.06-2.72-.08-4-3.2.07-6.51.23-9.72.29a17.06,17.06,0,0,0-.35,3.76,61.55,61.55,0,0,1,10.15-.08Z"/>
  </g>
  <g id="Layer_1" data-name="Layer 1">
    <path class="cls-7" d="M316.13,362.61c1.49-1.22,3.67-2.94,6.41-4.83,3.58-2.46,9-6.17,14.72-8.2,3.45-1.22,11-3.23,21.74-.77,2.18-3.17,4.41-5.86,6.59-9a41,41,0,0,0-14.12-2.66s4.15-3.36,15.86,0c2.23-2.69,4.91-5.91,7.63-8.64.94-.58,1.34-1.61,2.28-2.19-3-.71-6.62-1.87-10.15-2.53,0,0,4.38-.9,11.93.38q8.84-9,17.81-16.51c-5.68-2.45-10.78-4-13.19-3.24,0,0,3.7-2.82,16.4.46a168,168,0,0,1,19.64-12.71c-20.57-13.47-42-3.56-42-3.56l21-24.25-9.2,2.34.66-9-20.12,23.67S376,259,358.62,242.78A180.34,180.34,0,0,1,346,267.24c7.12,12.73,5.56,17.33,5.56,17.33.22-3-2.73-8.17-7.21-13.71-4.33,6.85-9.63,13.78-14.94,20.71l-3.57,4.3c7.66,13.17,4.68,18.4,4.68,18.4A37.53,37.53,0,0,0,323.67,299c-3.57,4.3-7.68,8.15-11.29,11.95a31.49,31.49,0,0,1-6.15,38.89Z"/>
    <path class="cls-7" d="M339.82,80.51s-4.21,1.14-6.19,3.1c-1.35,1.49-1,3.18-2.31,4.67A6.61,6.61,0,0,1,327.61,90l.89,2.31,3.17,2.58c1.08.68,3.44.42,4.52,1.1,1.15.14,3.95,1,4.9,2.8a2.37,2.37,0,0,1-.4,3.25,4.48,4.48,0,0,1-2.42.8l-5.87.39A49.85,49.85,0,0,1,326,103c-3,.73-3.13,1.82-3.13,1.82s1.84,4.07,5.21,5c2.23.82,3.11,3.13,4.63,5,1,1.22,2.09,1.9,3.11,3.13a7.06,7.06,0,0,1,1.39,2.92,52.4,52.4,0,0,1,5.4,3.4c1.59,1.3,4,5.44,4,5.44s2.8.89,4.46,1.64c2.22.82,5.2,5,5.2,5a2.94,2.94,0,0,1,2.29.28,15.54,15.54,0,0,1,2.6,2.52,5.62,5.62,0,0,1,3.44.41c2.23.82,4.7,4.42,4.7,4.42s1.28-.94,4.59.56a11.38,11.38,0,0,1,4.76,3.88,4.59,4.59,0,0,0,2.36-.26c.57.07,4.25,3.26,4.25,3.26a34.44,34.44,0,0,1,4.08,0c1.15.14,4.25,3.27,4.25,3.27l3.44.41c1.22-.4,4.46,1.64,4.46,1.64l4,.49c1.14.14,4.32,2.73,5.53,2.32s.4-3.25,0-4.4c-.38-1.7.46-3.79,0-4.95a51.21,51.21,0,0,0-1.64-5.7,2,2,0,0,1,.33-2.71s-2-3-1.76-4.61c-.45-1.15.46-3.79.46-3.79a25.29,25.29,0,0,0-.82-2.85,5.1,5.1,0,0,1-.11-3.87s-3-4.21-3.36-5.9,1.68-4.2,1.68-4.2a25.11,25.11,0,0,1-3.42-5.36c.06-.55-.05-4.41.53-4.34a5.48,5.48,0,0,1-2-3c-.88-2.31.9-2.64-.68-3.93s-2.34-4.69-2.72-6.38c.13-1.09.27-2.17-.24-2.78a5.72,5.72,0,0,0-2.6-2.52c-1.59-1.29-1.83-4.07-2.14-6.31l-2.54-3s-2.6-2.52-4.12-4.36-1.26-4-3.29-6.44c-.95-1.77-2.54-3.06-3.55-4.29-1.21.41-1.41,2-2.18,3.59l-2.25,4.13-2.31,4.66c-1.48,2.57-3.83,2.84-5.16-.62-.95-1.77-.18-3.32-.55-5,0,0-.69-3.93-1-6.17s-2.09-1.9-2.09-1.9a15.81,15.81,0,0,1-2.69,3,15.75,15.75,0,0,1-4.21,1.14s-3.52,5.07-4.8,6c-.64.48.7-1-2.42.81"/>
  </g>
</svg>
