<svg id="Layer_2" data-name="Layer 2" xmlns="http://www.w3.org/2000/svg" viewBox="0 0 661.21 655.49">
  <defs>
    <style>
      .cls-1, .cls-10, .cls-14, .cls-16, .cls-7 {
        fill: #fff;
      }

      .cls-2, .cls-4, .cls-6, .cls-8 {
        stroke: #fff;
      }

      .cls-10, .cls-11, .cls-13, .cls-14, .cls-15, .cls-16, .cls-2, .cls-4, .cls-5, .cls-6, .cls-7, .cls-8, .cls-9 {
        stroke-miterlimit: 10;
      }

      .cls-2, .cls-7 {
        stroke-width: 2px;
      }

      .cls-13, .cls-17, .cls-3, .cls-4 {
        fill: #ef3e57;
      }

      .cls-4 {
        stroke-width: 4px;
      }

      .cls-11, .cls-12, .cls-5, .cls-9 {
        fill: #21b9c0;
      }

      .cls-10, .cls-11, .cls-13, .cls-14, .cls-15, .cls-16, .cls-5, .cls-7, .cls-9 {
        stroke: #000;
      }

      .cls-15, .cls-5, .cls-6 {
        stroke-width: 3px;
      }

      .cls-8 {
        stroke-width: 2.62px;
      }

      .cls-10 {
        stroke-width: 1.42px;
      }

      .cls-11 {
        stroke-width: 1.07px;
      }

      .cls-15 {
        fill: none;
      }

      .cls-16 {
        stroke-width: 0.93px;
      }

      .cls-17 {
        font-size: 200px;
        font-family: Mistral;
      }
    </style>
  </defs>
  <g>
    <circle cx="327.74" cy="327.74" r="327.74"/>
    <circle class="cls-1" cx="363.17" cy="349.81" r="238.85"/>
    <path class="cls-2" d="M232.24,593.24c13.52,7.34,70,36,132.83,15.17a151,151,0,0,0,48.58-27.06c6.35-2.5,15.47-4.83,24.42-1.57,11.46,4.16,14.43,13.35,24.8,21.05,7,5.17,18.81,10.65,39.41,9.32A237.81,237.81,0,0,1,377.22,648c-20.49.33-55.93.67-94.15-17.93A182.77,182.77,0,0,1,232.24,593.24Z"/>
    <g>
      <g>
        <path class="cls-3" d="M80.05,629.43"/>
        <path class="cls-4" d="M78.94,354.37c1.62,4.85,3.78,13.09,5.26,19.37.56,2.38.94,4.14,1,4.37,5.94,27.26,24.35,56.58,24.35,56.58,44.2,70.38,99.25,111.42,99.25,111.42,4.17,3.11,31.7,23.42,65,37.72,8,3.42,25.32,10.78,43.18,13.48,12.4,1.87,17,2.29,17,2.29,10.13.87,18.9.75,30.11,4.16,3.15,1,5.93,2,8.29,4.58a15.17,15.17,0,0,1,3.6,13.55c-.44,1.73-1.42,4.14-4.63,7.37-7.1,7.12-16.37,9.44-21.77,10.28-68.76,5.8-111.23-10.51-130.29-19.67-16-7.7-35.54-20-38.74-22-16-10.12-37.39-23.77-61.37-46.29a347.38,347.38,0,0,1-51.09-60.34c-3.74-5.63-11.27-20-26.4-48.69a94.84,94.84,0,0,1-7.88-21.94,108.08,108.08,0,0,1-3.09-26.23c0-6.75.13-13.56,2.74-22.11a58.14,58.14,0,0,1,5.83-13.38c2.59-4.38,20-27.82,26.14-26.65C71.92,333.49,75.35,343.7,78.94,354.37Z"/>
        <path class="cls-1" d="M164.05,491.83,181,524.29c4.79,5.25,9,9.23,11.88,11.88,6.85,6.23,9.49,7.64,11.89,12.34a22.61,22.61,0,0,1,2.52,13.36,21.84,21.84,0,0,1-3.75,9.5L180,591.49l44,6.85,16-47.54Z"/>
        <path class="cls-5" d="M107.82,533.89a214.41,214.41,0,0,0,19.64,15.93A212,212,0,0,0,149,563.37c9.61,5.35,24.54,12.49,40,14.7a23,23,0,0,0,10.88-.59c10.18-3.3,14.88-13.8,16.35-17.54l5.94-13.25c12.52,10,22.92,17.58,30.24,22.77,7.9,5.61,15.25,12,23.24,17.45,7.7,5.27,11.82,7.61,14.65,13.34.3.6,5.55,11.61.44,19.12-2.22,3.26-3.2,7.77-19,10.72-8,1.49-32,0-63.26-9.35A355.68,355.68,0,0,1,49.31,483.14Q56.39,466,63.48,448.86a270.19,270.19,0,0,0,44.34,85Z"/>
        <path class="cls-6" d="M80.53,269.74a80.08,80.08,0,0,0-11.11,27.35c-5.53,27.53,5.44,49.85,9.52,57.28q7.36,21,14.74,41.92a288.37,288.37,0,0,0,31.51,61.25c10.26,15.15,20.36,26.09,35.66,43,7.69,8.49,12.25,13.49,19.38,20,13.06,11.9,24.38,19.39,36.85,27.56,12.9,8.45,21.34,13,32.88,19.7a155.91,155.91,0,0,0,57.63,19.61,153.92,153.92,0,0,0,39.78,0c-12.46-2.41-149.16-31.21-199.78-155-25.18-61.59-17.44-118.3-11.87-144.91,2.1-5.57,14.46-39,4.84-45.29-1.87-1.23-5.56-2.07-13.31,1.86Z"/>
        <path class="cls-7" d="M267.14,580.87a47.14,47.14,0,0,1-8.92,25.24c-12,16.27-30.46,18.62-33.76,19L207.94,608.4,245,564.92Z"/>
        <path d="M234.45,551.71a48.63,48.63,0,0,1-4.57,19.2,49.62,49.62,0,0,1-11,15.06,58.3,58.3,0,0,1-15.94,10.09c-24,9.68-69.53-15.28-70.4-13.72-.41.74,9.12,7.44,58.4,36.57l23,10.52A90.12,90.12,0,0,0,254.11,602,88.92,88.92,0,0,0,271,570.23Z"/>
      </g>
      <g>
        <path class="cls-8" d="M102.51,409.31c4.62.62,8.1,2.3,18.51,9.78,22.38,16.06,24.14,21.09,24.52,24.68.3,2.89-.28,5-1.2,8.23-3.79,13.25-10.78,17.11-18.75,28.85-6.29,9.28-9,17.33-19.48,36.81a24.94,24.94,0,0,1-8.31,9.41A25.75,25.75,0,0,1,95,528.63c-5.65,2.59-16.37.8-27.6-5.32-9.15-5-20-10.89-25.38-23.82-5.2-12.53-2.34-24.55-.34-32.92a74.25,74.25,0,0,1,6.4-16.88,87.38,87.38,0,0,1,14.52-20.45C69,422.48,76.29,414.74,88.28,411,91.86,409.92,96.55,408.52,102.51,409.31Z"/>
        <path class="cls-9" d="M115.71,427.66c4.4,1.41,12.3,4.68,17.68,12,3.52,4.81,3.55,8.07,3.52,9-.13,4.1-2.66,7.07-3.54,8.14-7.17,8.62-13.91,21.34-17.15,27.43-5.53,10.43-8.27,20.81-15.93,30.83A13.76,13.76,0,0,1,95.87,519c-6.92,3.77-15.45,0-18.9-1.6-2.33-1-12.33-5.52-17.15-16.53-4.37-10-1.84-19.46.35-27.6a70.62,70.62,0,0,1,5.65-14.06,78.26,78.26,0,0,1,10.8-16.8c5.76-6.71,11.07-12.89,20.06-15.43A32.45,32.45,0,0,1,115.71,427.66Z"/>
        <path class="cls-10" d="M107.31,434.51A23.45,23.45,0,0,1,120.68,445a13,13,0,0,1,2.11,6.86,11.33,11.33,0,0,1-.87,4c-1.8,4.55-5,7.39-6.93,9.36a53.18,53.18,0,0,0-9.74,13.91c-1.65,3.21-2.7,6.2-4.8,12.17-1.55,4.42-2.75,8.41-6.19,12.58A11.53,11.53,0,0,1,91,507c-4.83,2.77-10.84.2-13.26-.84a21.79,21.79,0,0,1-10.19-8.46c-5.29-8.62-2.24-19-.38-25.22a62.22,62.22,0,0,1,4.24-10.29,74.36,74.36,0,0,1,7.83-13c4.8-6.28,8.34-10.9,14.82-13.44A21.7,21.7,0,0,1,107.31,434.51Z"/>
        <path d="M105.11,437c1.26.19,9.5,1.63,12.56,8.57a13.74,13.74,0,0,1,.61,8.56c-.84,3.92-2.69,5.09-6.85,10.84-3.15,4.35-5.06,7.79-8.75,14.42a87.3,87.3,0,0,0-5,9.6c-2.07,5.25-1.95,7.49-4.46,10.8-1.31,1.72-3.3,4.36-6.59,5.14-4.86,1.17-9.63-2.87-12.78-5.48a18.11,18.11,0,0,1-3.94-3.95C65.47,489,68,480.1,69.85,473.76a62.7,62.7,0,0,1,4.21-10.5,71.87,71.87,0,0,1,7-11.95c4.31-5.86,7.35-10,13-12.51A19.35,19.35,0,0,1,105.11,437Z"/>
      </g>
    </g>
    <path class="cls-2" d="M562.7,161.74c10.58,11.16,52.89,58.32,49,124.39a151.29,151.29,0,0,1-13.59,53.93c-.77,6.77-.66,16.19,4.8,24,7,10,16.62,10.48,26.74,18.51,6.81,5.4,15.15,15.41,19.2,35.66a237.79,237.79,0,0,0,4.2-130.59c-5-19.88-13.8-54.2-41.66-86.32A183,183,0,0,0,562.7,161.74Z"/>
    <g>
      <g>
        <path class="cls-3" d="M550,3.81"/>
        <path class="cls-4" d="M286.84,83.76c5.11.13,13.62-.24,20.06-.68,2.44-.16,4.24-.31,4.47-.33,27.8-2.36,61.24,6.6,61.24,6.6,80.28,21.51,135.71,62,135.71,62,4.2,3.07,31.71,23.4,55.18,51,5.62,6.61,17.76,21,25.6,37.31,5.45,11.29,7.2,15.55,7.2,15.55,3.81,9.43,6.28,17.85,12.84,27.56,1.84,2.72,3.68,5.06,6.82,6.56a15.14,15.14,0,0,0,14-.54c1.53-.93,3.55-2.58,5.68-6.6,4.72-8.88,4.2-18.42,3.42-23.83-14.71-67.42-42.8-103.2-57.17-118.72-12.08-13.05-29.55-28.09-32.42-30.55-14.39-12.33-33.72-28.73-62.31-45A347.5,347.5,0,0,0,414.45,33C408,31.12,392,28.15,360.15,22.15a95.19,95.19,0,0,0-23.29-1.07,107.47,107.47,0,0,0-26,4.77C304.44,27.88,298,30,290.56,35a57.53,57.53,0,0,0-11.07,9.51c-3.43,3.76-20.7,27.28-17.77,32.83C264.82,83.21,275.59,83.48,286.84,83.76Z"/>
        <path class="cls-1" d="M443.27,124.61l36,6.61c6.44,3,11.47,5.85,14.86,7.86,8,4.71,10.09,6.81,15.29,7.72a22.51,22.51,0,0,0,13.5-1.53,21.67,21.67,0,0,0,8-6.38q6.15-14.2,12.29-28.42l19.51,40L522,179.76Z"/>
        <path class="cls-5" d="M466.9,58.49a212.66,212.66,0,0,1,40.29,30.62c7.95,7.61,19.16,19.77,25.83,33.89a23.13,23.13,0,0,1,2.64,10.56c-.16,10.71-8.81,18.29-11.95,20.79l-10.92,9.59c13.22,9,23.56,16.72,30.67,22.19,7.69,5.9,15.94,11,23.53,17.07,7.3,5.8,10.74,9.06,17.06,10.07.66.11,12.72,1.88,18.4-5.21,2.46-3.08,6.48-5.35,4.66-21.29-.93-8.06-9.47-30.61-27.57-57.69A355.86,355.86,0,0,0,401.17,17.52L372.58,41.16a271.46,271.46,0,0,1,66.33,8.5A268.56,268.56,0,0,1,466.9,58.49Z"/>
        <path class="cls-6" d="M206.43,110.21a80.11,80.11,0,0,1,22.86-18.67c24.69-13.4,49.25-9.49,57.55-7.78l44.4,1.75a287.63,287.63,0,0,1,67.82,12.07c17.5,5.34,30.93,11.77,51.57,21.42,10.38,4.85,16.5,7.73,24.81,12.63,15.21,9,25.7,17.58,37.18,27.1,11.87,9.84,18.75,16.55,28.51,25.62a155.61,155.61,0,0,1,35.72,49.3,153.62,153.62,0,0,1,11.71,38c-6-11.19-73.75-133.35-206.93-145.27-66.27-5.93-118.19,18.18-142,31.33-4.7,3.65-33,25.3-41.85,18-1.73-1.43-3.62-4.71-2.15-13.27Q201,136.31,206.43,110.21Z"/>
        <path class="cls-7" d="M558.72,196.91a47.3,47.3,0,0,0,21.5-16c12-16.22,8.82-34.59,8.19-37.86L567.6,132.22,537,180.47Z"/>
        <path d="M521.23,174.25a48.66,48.66,0,0,0,17-10,49.83,49.83,0,0,0,11.13-15,58,58,0,0,0,5-18.2c2.2-25.75-35.08-62-33.84-63.24.58-.61,9.8,6.53,52.15,45l16.81,18.86a90.08,90.08,0,0,1-14.36,46.52,89,89,0,0,1-25.38,25.52Z"/>
      </g>
      <g>
        <path class="cls-8" d="M346.29,90.1c1.95,4.24,4.58,7.07,14.79,14.82,21.94,16.65,27.27,16.85,30.81,16.15,2.85-.56,4.69-1.73,7.51-3.57C411,110,412.58,102.17,421.45,91.09c7-8.74,13.9-13.73,29.44-29.46a23.46,23.46,0,0,0,7.21-13.88c.81-6.15-4.06-15.88-13.22-24.81-7.46-7.27-16.3-15.9-30.24-17.23-13.5-1.28-24.14,5-31.56,9.37a74.46,74.46,0,0,0-14.25,11.09,87.13,87.13,0,0,0-15.26,19.9c-4.58,8.1-9.82,17.38-9.83,29.93C343.73,79.75,343.78,84.64,346.29,90.1Z"/>
        <path class="cls-9" d="M367.71,97.31c2.64,3.79,8.09,10.38,16.68,13.36,5.64,2,8.76,1,9.63.72a13.6,13.6,0,0,0,6.74-5.78c6.12-9.39,16.29-19.58,21.16-24.47,8.34-8.35,17.45-14,24.77-24.3a13.86,13.86,0,0,0,2.46-5.39c1.56-7.72-4.61-14.75-7.1-17.59-1.68-1.91-8.9-10.16-20.85-11.51-10.86-1.23-19.14,4-26.28,8.46a70.29,70.29,0,0,0-11.76,9.54,78,78,0,0,0-12.88,15.27c-4.71,7.48-9.06,14.37-8.83,23.71A32.36,32.36,0,0,0,367.71,97.31Z"/>
        <path class="cls-10" d="M371.79,87.27A23.46,23.46,0,0,0,385.72,97a13,13,0,0,0,7.18,0,11.48,11.48,0,0,0,3.55-2c3.81-3.06,5.59-6.94,6.9-9.39a53.57,53.57,0,0,1,10.42-13.4c2.59-2.52,5.13-4.4,10.22-8.17,3.77-2.78,7.23-5.11,10.2-9.62a11.53,11.53,0,0,0,2-4.06c1.22-5.43-3-10.41-4.71-12.41a21.79,21.79,0,0,0-11.08-7.25c-9.8-2.52-18.77,3.44-24.22,7.06a61.1,61.1,0,0,0-8.58,7.09,73.27,73.27,0,0,0-10.1,11.3c-4.58,6.44-8,11.18-8.48,18.12A21.71,21.71,0,0,0,371.79,87.27Z"/>
        <path d="M373.55,84.42c.55,1.15,4.36,8.6,11.89,9.48A13.7,13.7,0,0,0,393.81,92c3.49-1.95,4.06-4.06,8.33-9.74,3.23-4.28,6-7.13,11.2-12.6A89.25,89.25,0,0,1,421.05,62c4.41-3.52,6.59-4.07,9-7.44,1.26-1.76,3.19-4.44,3-7.82-.32-5-5.59-8.35-9-10.59a18,18,0,0,0-4.93-2.61c-7.6-2.33-15.32,2.72-20.84,6.33A61.36,61.36,0,0,0,389.47,47a71.53,71.53,0,0,0-9.35,10.22c-4.34,5.85-7.41,10-8.13,16.14A19.44,19.44,0,0,0,373.55,84.42Z"/>
      </g>
    </g>
    <g>
      <path d="M590.64,401.82A220.62,220.62,0,0,0,643.26,461,33.19,33.19,0,0,1,650,473.14,34.6,34.6,0,0,1,648.77,496c-.52,1.2-4.63,10.23-14.16,12.42a19.18,19.18,0,0,1-9.77-.37c-6.36-2.7-13.11-5.86-20.11-9.57A257.56,257.56,0,0,1,579.27,483a340.57,340.57,0,0,0,28.42,24.36c7.08,5.42,14,10.27,20.66,14.62a50.12,50.12,0,0,1,9.83,10.23,37.78,37.78,0,0,1,3.28,5.3c4.19,9.18-4.53,22-6.54,24.89-.81,1.42-6.66,11.26-18.5,13.19A26,26,0,0,1,600.69,573c-3.85-3.44-9.72-8.63-17.05-14.81-7.95-6.71-11.64-9.54-18.95-15.67-4.93-4.13-12-10.13-20.33-17.71,7.1,8.84,14.85,17.92,23.3,27.12q7.13,7.77,14.14,14.84a19.5,19.5,0,0,1,2.48,14.38c-2,8.69-9.4,12.45-10.38,12.92-2.18,2.39-7,6.94-14,7.62-5.15.51-9.46-1.3-14.76-3.51a56.23,56.23,0,0,1-8.94-4.75L501.65,571a85.88,85.88,0,0,0-25.69-9.4,84,84,0,0,0-11.11-1.37c15.19-4.72,62.7-21.63,95.77-70.49A179,179,0,0,0,590.64,401.82Z"/>
      <path class="cls-1" d="M541.46,526.22q3.7,20.88,7.43,41.78l-59.36-9.09a140.58,140.58,0,0,0,51.93-32.69Z"/>
      <path class="cls-11" d="M486.61,558.41l35.55,17.76c2.55,1.42,10.59,5.5,19.25,2.85,4.18-1.28,7.14-3.71,9.86-6,4-3.26,7.34-6,8.74-10.43,2.47-7.8-2.93-15.38-4-16.76a92.1,92.1,0,0,0-14.6-19.65,27.29,27.29,0,0,1-9.09,13.06,12.77,12.77,0,0,0-1.09,6.54c.39,3.43,2.25,5.86,5.53,10,3.17,4,5.75,6.3,5.54,6.54s-2.2-1.4-5.3-3.62a81,81,0,0,0-9.58-6.29,25.75,25.75,0,0,0-13-2.5Z"/>
      <path class="cls-1" d="M546.25,521.33A123.32,123.32,0,0,0,577.55,483q9.59,25.23,19.15,50.47Z"/>
      <path class="cls-11" d="M545.37,521.91a31,31,0,0,0,15.89-9.69,10.18,10.18,0,0,1,3.09-.36,10.42,10.42,0,0,1,5,1.51l14.45,10.21-12.25-14.34a14.65,14.65,0,0,1-1.38-2.22,16.2,16.2,0,0,1-1.75-6.67A28.39,28.39,0,0,1,574,486.77a26.92,26.92,0,0,1,3.57-3.79c.26.42.67,1.08,1.19,1.88,0,0,2.21,3.42,4.94,6.88,2.32,2.93,9.69,10.8,20.77,20.17a18.55,18.55,0,0,1-2.25,24.76c-.63,1.08-5.09,8.4-13.83,9.68a18.82,18.82,0,0,1-10.29-1.48q-5.91-4-11.88-8.17Q555.57,529.3,545.37,521.91Z"/>
      <path class="cls-1" d="M579.94,479.71l42.83-10.31-28.55-52.84a151,151,0,0,1-14.28,63.15Z"/>
      <path class="cls-9" d="M594.22,416.56l25,34.3a23.4,23.4,0,0,1,3.41,26.89,18.65,18.65,0,0,1-23.77,10.08,63.78,63.78,0,0,1-12.4-4.49,63.14,63.14,0,0,1-6.5-3.63c.8-1.34,2.08-3.47,2.88-4.82,1-1.74,2.35-3.92,3.4-5.67a10.13,10.13,0,0,1,4.42-5.86c3.35-1.88,7.11-.9,9.28-.33a17.75,17.75,0,0,1,3.41,1.29,20.61,20.61,0,0,1-8.17-9.18,19.44,19.44,0,0,1-1.51-5.68c.37-4.15.64-8.5.78-13C594.66,429.38,594.55,422.74,594.22,416.56Z"/>
    </g>
    <g>
      <g>
        <path class="cls-1" d="M70.11,157.66c-.12,3.43-.23,6.85-.34,10.28Q74,182.49,78,197.43c1.14,4.21,3.76,26.11,4.12,31.2.8,11.4,1.75,15.93,5.2,19.56a16.48,16.48,0,0,0,5,3.58,81.7,81.7,0,0,0,.74-63.6Z"/>
        <path class="cls-2" d="M210.68,153.89l-28.13-17.46c-13.6-8.44-19-14.62-22.61-23.34-1.44-3.51-2.06-6.68-5.15-11.32-1.92-2.9-5.84-8.8-13-12-10.2-4.54-20.23-.63-22.55.34a143.3,143.3,0,0,0-51.33,42.11,46.24,46.24,0,0,0-8.07,28.52,61.12,61.12,0,0,0,12.33,19.85l9.72,17.12a66,66,0,0,1,11.81,47.38Z"/>
        <path class="cls-12" d="M190.91,150.46,170.45,134.8a99.4,99.4,0,0,1-8.11-8.23c-3.9-4.44-4.65-6.12-7.89-9-2.2-2-5.28-4.73-9-5.94-5-1.62-10.31-.13-17.64,3.68-4.28,2.23-14.22,7.74-29.54,23.52-12.46,12.82-15.08,18.61-16.39,23.34a34.07,34.07,0,0,0-1.11,13.1c.81,6.39,3.3,9.71,6.4,15.67,8.6,16.57,8,26.87,12,27S108.28,207,108.28,207h0q7.18-10.83,15.43-22.17,8.64-11.85,17.14-22.4Z"/>
        <path class="cls-3" d="M167.59,148.17c-1.56-1.49-4-3.72-7.07-6.3-3.93-3.27-4.81-3.64-6.19-4.71h0a13.27,13.27,0,0,1-1.71-1.45c-1.49-1.57-7.37-8.73-13.66-13a11.18,11.18,0,0,0-4.28-2.07,11.5,11.5,0,0,0-7.68,1.56,81.17,81.17,0,0,0-23,17.75h0c-8.25,8.26-10.87,12.68-12.11,16a23.26,23.26,0,0,0-1.26,10.63c.6,5.57,3.1,9.66,6.63,15.43,4,6.46,5,6,5.94,9.49,1.47,5.2,0,9.13,2.4,10.85,1.46,1,3.54.69,5,.23l23.89-41.31Z"/>
      </g>
      <g>
        <path class="cls-13" d="M333.25,357a45.12,45.12,0,0,1,.33-8.09c.66-5,1.67-6.06,1.73-9.91a20.73,20.73,0,0,0-1.89-9.43c-.47-1-1.71-3.36-6.33-7.6a63.38,63.38,0,0,0-9.61-7.31c-22.33-13.42-27.77-16.29-27.77-16.29-15.52-8.49-23.48-12.35-28.63-14.57-11.14-4.8-9.37-3-28.46-10.63a174.54,174.54,0,0,0-20.4-7c-6.55-1.78-11.39-2.63-17.14-2.23a37.38,37.38,0,0,0-10,1.93s-3.13,1.08-13.32,7a58.77,58.77,0,0,1,21.42-5c8.18-.31,14.38,1.21,19.89,2.57,3,.73,8.9,3,20.74,7.54a126.77,126.77,0,0,1,19.72,9.26,37.47,37.47,0,0,1,7,5.48,22.54,22.54,0,0,1,4.62,5.83c1.31,2.49.8,2.9,2.23,6.69,1.33,3.49,2.18,5.73,4.29,7.88a32.44,32.44,0,0,0,5.66,4.29l2.11,1.3c1.49.89,2.63,1.55,3.51,2.06,9.95,5.81,10.78,7.11,17.79,10.83,4.2,2.23,4.51,2.09,7.34,3.83,1.56,1,2.78,1.81,9.36,7,7.41,5.85,8.65,7,9.77,8.05A73.65,73.65,0,0,1,333.25,357Z"/>
        <path d="M165.25,288.11a340.89,340.89,0,0,1,42.52,14.23c12.62,5.19,22.33,10.15,41.73,20.08,15.74,8.06,23.6,12.09,33.18,17.81a360.8,360.8,0,0,1,39.6,27.43,11.13,11.13,0,0,0,2.4-5.66c.54-5.33-3.57-10.36-13.54-18.34-7.4-5.92-13.89-10.19-24.52-16.63-8-4.84-14.13-8.57-23.47-13.75-8.21-4.55-16.49-9.15-26.85-14a238.28,238.28,0,0,0-32.31-13c-5.71-1.77-11.34-3.86-17.14-5.32a71.29,71.29,0,0,1-12.35-4c-2.41-1.06-4.34-2.08-5.65-2.81a28,28,0,0,1,6.69-7,30.29,30.29,0,0,1,12.71-5.21c15-2.92,31.93,2.6,46.26,7.61a372.42,372.42,0,0,1,38.06,15.94c14.05,6.61,26.66,13.25,38.64,20.28,22.05,13,12.8,10.07,25.13,17.2a28.46,28.46,0,0,1,11,10.14,25.4,25.4,0,0,1,3,7.92,47,47,0,0,0,12.52-16.28c7.26-15.8,3.1-30.93,1.37-37.2a67.88,67.88,0,0,0-14.23-26.23c-4.4-5.22-8.93-8.79-18-15.94-9.71-7.67-14.59-11.48-21.43-15.09-8.29-4.37-15.42-6.52-30.68-14.23a25.66,25.66,0,0,1-8.57-6.34c-3.17-3.69-4.05-7.09-6.18-13.71-3.2-10-4.81-14.92-6.34-17.83-4-7.63-9.87-11.75-15.6-15.77-8.72-6.13-16.38-8.59-25.71-11.49-16.71-5.2-29.9-6-41.66-6.69-8.49-.5-13.44-.29-18.47.47-5.77.88-12.63,1.92-19.93,6.39-6,3.65-9.55,8-14,13.34A90.11,90.11,0,0,0,115.21,176c-3,5.05-3.9,7.67-7.9,16.32-1.1,2.38-1.93,4.12-2.64,5.56-2.48,5.1-4.28,8.76-4.61,9.41-8.3,16.65-15.28,30.65-12.12,45,.6,2.76,2.18,9.93,8,15.6.25.23.53.49.86.77,7.63,6.3,18.61,8.07,29.52,10,3.67.66,10.88,2,18.48,3.75C153.59,284.5,160.63,286.62,165.25,288.11Z"/>
        <g>
          <path class="cls-1" d="M354.85,320.17q-9.86-7.41-20.57-14.91-13.11-9.17-25.71-17.15c-7.44-4.18-15.38-8.38-23.84-12.5-7.35-3.59-14.51-6.84-21.42-9.78a149.55,149.55,0,0,0-20-7.53c-4.17-1.24-8.16-2.22-11.93-3-.51-.22-.6-.38-.59-.48,0-.67,4-.24,8.14-2a15.76,15.76,0,0,0,5.14-3.43c1.07-1.1,2.28-2.71,5.11-5.54a26.66,26.66,0,0,1,8.23-5.49c1.84-.74,5.45-1.78,16,.75a84.53,84.53,0,0,1,20.36,7.37,83.3,83.3,0,0,1,18,11.48c4.2,3.55,5.66,5.58,6.54,7.9a8.12,8.12,0,0,1,.27.79c1.31,4.52.82,7.92.74,10.68a35,35,0,0,0,1.45,9.24c2.15,7.93,9.2,10.72,19,18.67A107.32,107.32,0,0,1,354.85,320.17Z"/>
          <path class="cls-13" d="M285.59,257.43a23.53,23.53,0,0,1-.68,3.77c-.73,2.72-1.4,3.33-1.37,4.8,0,2,1.34,3.52,2.57,4.8a21.52,21.52,0,0,0,6.34,4.29c8.78,4.53,8.57,4.9,11,5.48,3.33.8,6.08,1.46,8.57,0,3.44-2,4.34-6.82,3.93-10.11-.51-4.17-3.26-6.82-6.15-9.6-.95-.91-3-2.75-9.95-6.79a107.84,107.84,0,0,0-16.28-8.13,60.59,60.59,0,0,0-11.1-3.43c-6.12-1.19-10.87-2.11-15.47.35-.79.42-6.08,3.24-6.52,8.4a8.56,8.56,0,0,0,1.54,5.65c2.07,2.77,4.69,2.79,11.18,4.7,9.64,2.84,12.6,5.52,15.05,3.7,1.46-1.08,1.25-2.65,3.95-5.29A17.66,17.66,0,0,1,285.59,257.43Z"/>
        </g>
        <g>
          <path class="cls-14" d="M123.25,194.34a42.1,42.1,0,0,0-4.63,4.8,43.69,43.69,0,0,0-6.39,11c-5,11.45-7.35,17.22-8.69,24.86-1.57,9-2.38,13.57.17,18.52,3.69,7.17,11.64,9.63,14.4,10.35L159.25,273a7.36,7.36,0,0,0,10.2-4.8,28.3,28.3,0,0,1,10-14.06c10.3-7.55,22.05-4.89,23.83-4.46q2.56-5.73,5.14-11.48Z"/>
          <path class="cls-15" d="M159,268.51s4.69,2.46,7.26.4c.48-.38,2.59-6.11.22-9.13a6.57,6.57,0,0,0-2.12-1.74,22.76,22.76,0,0,0-3.93-1.64c-4.14-1.3-6.21-.66-9.43-1.89a14.51,14.51,0,0,1-5-3.25,57.31,57.31,0,0,1,7.2-.17,58.21,58.21,0,0,1,9.25,1.09,19.5,19.5,0,0,0,9.44.28c3.4-.79,4.88-2.2,7.88-3.43,2.75-1.12,13.48-2.44,19.55-1.64l14.51,1.21"/>
          <path class="cls-13" d="M163.71,271q-6.24-1.75-12.69-3.43-17.47-4.52-33.94-7.71a16.4,16.4,0,0,1-6.17-3.09,16.62,16.62,0,0,1-5-6.68,13.16,13.16,0,0,1,0-9.43,9.25,9.25,0,0,1,2-3.6,9.68,9.68,0,0,1,5.66-2.92c1.83-.07,3.4-.19,4.63-.29,1.39-.12,3.47-.31,6.17-.73,1.2-.19,2.2-.38,2.92-.52,2.52,1.08,5.22,2.14,8.09,3.16,2.29.81,4.51,1.52,6.65,2.16l20.06,1.88,20.05,3.43,11.89,3.43-18.85-3A94,94,0,0,0,150,242.51a11.9,11.9,0,0,0-8.6,17.66c.65.35,1.31.69,2,1a104,104,0,0,0,16,6.51Z"/>
          <ellipse class="cls-16" cx="127.25" cy="248.6" rx="11" ry="8.83"/>
          <path class="cls-13" d="M118.79,202.47c-.87,3.54-2.48,12.27,1.69,21.37a30.1,30.1,0,0,0,4.66,7.19,34.42,34.42,0,0,0-15.43,1.37c-.83.28-1.61.58-2.36.9a95.39,95.39,0,0,1,11.44-30.83Z"/>
        </g>
        <g>
          <path class="cls-9" d="M271,215.77a26.81,26.81,0,0,0-4.63-2.57,28.41,28.41,0,0,0-6.45-1.88c-5.5-1.1-8.5-9.09-12.23-14.75-6.81-10.32-17.38-14.88-25.42-18.3-5.42-2.31-10.57-3.38-20.87-5.53a172.32,172.32,0,0,0-24.85-3.6,148,148,0,0,0-22.46.35,42.36,42.36,0,0,0-10.17,1.86c-.07,0-.52.18-1,.36a32.4,32.4,0,0,0-13.45,10.07c-3.09,4.33-2.79,7-6.61,9.65a14.4,14.4,0,0,1-3.26,1.71,10.36,10.36,0,0,1,1.57,6.13,11,11,0,0,1-.71,2.73,27.68,27.68,0,0,0-1.14,11.31,26.83,26.83,0,0,0,1.43,6.48,32.59,32.59,0,0,0,4.39,8.61,37.21,37.21,0,0,0,5.1,3.41,41.6,41.6,0,0,0,6.5,2.82,55.66,55.66,0,0,0,12.52,2.57c9.43,1.12,10,.26,17,1.15,3.79.49,7.78,1.5,15.76,3.52,5.61,1.42,6.13,1.69,17,4.59,9.91,2.65,11.92,3.08,13.72,3.43a105.59,105.59,0,0,0,14,1.71,20.09,20.09,0,0,0,10.63-2.23c7.52-4.07,11.7-13.45,13.89-18.34,1.29-2.9,2.49-6.25,5.83-9.43a26.26,26.26,0,0,1,4.8-3.77A18,18,0,0,1,271,215.77Z"/>
          <path class="cls-14" d="M126.34,205.54a105.12,105.12,0,0,0,32.91-21.14,31.47,31.47,0,0,1,7-3.43,29.33,29.33,0,0,1,8.57-1.65c6-.33,11.15-.6,18,.8a58,58,0,0,1,20.54,8.57,57.3,57.3,0,0,1,6.86,6C226.45,201,228.34,206,233,212.51c6.18,8.78,12.73,12.33,12,13.38s-9.38-2.12-12.58-3.66a13.75,13.75,0,0,0-5.35-1.36l-1.85.12-1.31.1c-1.62.11-10.78.62-12.17.68-6.81.29-13.29-3.19-26.4-4.63-12.33-1.35-17.1.61-24.25-3.32a54,54,0,0,0-6.62-3.37c-4.71-2-14.83-3.09-20.9-3.88C132,206.37,129.45,206,126.34,205.54Z"/>
          <path d="M218.37,202.74c.69,3.74-.1,9-3.84,12.09a12,12,0,0,1-6.89,2.58c-4.14.33-6.69-1.34-10.67-2.84-4.23-1.59-7.56-2-14.23-2.74-9.16-1.06-14,0-20.06-2.92a10.33,10.33,0,0,1-4.09-3.2,11.59,11.59,0,0,1-1.85-8c.58-5.67,4.87-10.27,9.2-12.45,3.48-1.76,6.72-1.75,13.2-1.72a62,62,0,0,1,9.71.81c6.69,1.08,14.53,2.35,21.66,7.94C213.8,194.87,217.45,197.73,218.37,202.74Z"/>
        </g>
      </g>
    </g>
  </g>
  <text class="cls-17" transform="translate(317.08 486.65)">FCT</text>
</svg>
